<svg viewBox="0 0 56 40" fill="none" xmlns="http://www.w3.org/2000/svg">
  <defs>
    <linearGradient id="g1" x1="0%" y1="0%" x2="0%" y2="100%">
      <stop offset="0%" stop-color="#FF6B00"/>
      <stop offset="100%" stop-color="#CC4400"/>
    </linearGradient>
  </defs>
  <rect width="56" height="40" rx="4" fill="#0A0A0A"/>
  <path d="M2 38 L14 4 L20 4 L32 38 L26 38 L21.5 25 L12.5 25 L8 38 Z" fill="#FFFFFF"/>
  <rect x="13" y="22" width="11" height="3" fill="#FFFFFF"/>
  <rect x="15.5" y="1" width="3" height="3" rx="0.5" fill="url(#g1)"/>
  <line x1="34" y1="4" x2="34" y2="38" stroke="#FF6B00" stroke-width="1" stroke-opacity="0.4"/>
  <path d="M37 38 L37 4 L48 4 Q56 4 56 14 Q56 24 48 24 L43 24 L43 38 Z" fill="#FFFFFF"/>
  <path d="M43 9 L43 19 L47 19 Q51 19 51 14 Q51 9 47 9 Z" fill="#0A0A0A"/>
</svg>
